# xmcd CD database file
#
# Track frame offsets:
#	150
#	24735
#	68275
#	87512
#	110192
#	128750
#
# Disc length: 2374 seconds
#
# Revision: 0
# Processed by: cddbd v1.5.2PL0 Copyright (c) Steve Scherf et al.
# Submitted via: CDex 1.50
#
DISCID=4b094406
DTITLE=Frank Wess - Jazz For Playboys
DYEAR=1956
DGENRE=Jazz
TTITLE0=Playboy
TTITLE1=Miss Blues
TTITLE2=Baubles, Bangles And Breads
TTITLE3=Low Life
TTITLE4=Pin Up
TTITLE5=Blues For a Playmate
EXTD=YEAR: 1956
EXTT0=
EXTT1=
EXTT2=
EXTT3=
EXTT4=
EXTT5=
PLAYORDER=
